<?xml version="1.0" encoding="UTF-8"?>
<svg width="800px" height="800px" fill="#000000" version="1.1" viewBox="0 0 490 490" xml:space="preserve" xmlns="http://www.w3.org/2000/svg">
		<path d="m410.1 458.74-128.24-105.23h-176.41c-58.14 0-105.45-48.345-105.45-107.76v-106.74c0-59.41 47.313-107.76 105.45-107.76h279.09c58.14 0 105.45 48.346 105.45 107.76v106.74c0 49.99-33.511 92.697-79.897 104.51v108.47zm-304.65-396.85c-41.257 0-74.828 34.603-74.828 77.131v106.74c0 42.528 33.571 77.131 74.828 77.131h187.35l86.671 71.104v-70.043l13.518-1.6c37.848-4.456 66.379-37.384 66.379-76.592v-106.74c0-42.528-33.571-77.131-74.828-77.131h-279.09z"/>
		<path d="m87.284 210.52c5.458 3.32 16.778 7.223 25.556 7.223 8.972 0 12.681-3.125 12.681-8 0-4.89-2.931-7.223-14.041-10.931-19.709-6.639-27.32-17.361-27.126-28.681 0-17.75 15.223-31.208 38.82-31.208 11.125 0 21.085 2.527 26.931 5.458l-5.264 20.486c-4.292-2.348-12.486-5.473-20.681-5.473-7.223 0-11.32 2.931-11.32 7.806 0 4.486 3.708 6.834 15.417 10.931 18.139 6.236 25.75 15.417 25.945 29.459 0 17.75-14.042 30.819-41.362 30.819-12.486 0-23.612-2.722-30.819-6.624l5.263-21.265z"/>
		<path d="m172.13 171.5c0-11.888-0.389-22.042-0.778-30.431h24.973l1.361 12.875h0.583c4.097-6.041 12.486-15.013 28.875-15.013 12.292 0 22.042 6.236 26.139 16.18h0.389c3.514-4.875 7.806-8.778 12.292-11.499 5.279-3.125 11.125-4.68 18.154-4.68 18.333 0 32.195 12.875 32.195 41.347v56.196h-28.875v-51.891c0-13.862-4.501-21.862-14.056-21.862-6.819 0-11.709 4.68-13.653 10.348-0.778 2.138-1.166 5.264-1.166 7.611v55.792h-28.875v-53.459c0-12.098-4.292-20.292-13.668-20.292-7.596 0-12.098 5.862-13.847 10.737-0.972 2.333-1.166 5.069-1.166 7.417v55.598h-28.875v-64.974z"/>
		<path d="m339.69 210.52c5.458 3.32 16.778 7.223 25.556 7.223 8.972 0 12.681-3.125 12.681-8 0-4.89-2.931-7.223-14.042-10.931-19.709-6.639-27.32-17.361-27.126-28.681 0-17.75 15.223-31.208 38.82-31.208 11.125 0 21.07 2.527 26.931 5.458l-5.264 20.486c-4.292-2.348-12.486-5.473-20.681-5.473-7.223 0-11.32 2.931-11.32 7.806 0 4.486 3.708 6.834 15.417 10.931 18.139 6.236 25.75 15.417 25.945 29.459 0 17.75-14.041 30.819-41.362 30.819-12.486 0-23.612-2.722-30.819-6.624l5.264-21.265z"/>
</svg>
